<svg width="30" height="31" viewBox="0 0 30 31" fill="none" xmlns="http://www.w3.org/2000/svg">
<path d="M20 22.0723V20.8223H16.25V17.0723H20V19.5723H22.5V22.0723H21.25V24.5723H18.75V27.0723H16.25V23.3223H18.75V22.0723H20ZM26.25 27.0723H21.25V24.5723H23.75V22.0723H26.25V27.0723ZM3.75 4.57227H13.75V14.5723H3.75V4.57227ZM6.25 7.07227V12.0723H11.25V7.07227H6.25ZM16.25 4.57227H26.25V14.5723H16.25V4.57227ZM18.75 7.07227V12.0723H23.75V7.07227H18.75ZM3.75 17.0723H13.75V27.0723H3.75V17.0723ZM6.25 19.5723V24.5723H11.25V19.5723H6.25ZM22.5 17.0723H26.25V19.5723H22.5V17.0723ZM7.5 8.32227H10V10.8223H7.5V8.32227ZM7.5 20.8223H10V23.3223H7.5V20.8223ZM20 8.32227H22.5V10.8223H20V8.32227Z" fill="black"/>
</svg>
