<svg width="30" height="31" viewBox="0 0 30 31" fill="none" xmlns="http://www.w3.org/2000/svg">
<path fill-rule="evenodd" clip-rule="evenodd" d="M19.7917 4.82227C19.2394 4.82227 18.7917 5.26998 18.7917 5.82227C18.7917 6.37455 19.2394 6.82227 19.7917 6.82227H21.25C21.7584 6.82227 22.2459 7.0242 22.6053 7.38364C22.9648 7.74309 23.1667 8.2306 23.1667 8.73893V15.2135C21.4531 15.6397 19.8817 16.5248 18.6255 17.7811C17.3693 19.0373 16.4841 20.6087 16.058 22.3223H10.4545C10.0125 20.6436 8.48417 19.4056 6.66667 19.4056C4.50355 19.4056 2.75 21.1591 2.75 23.3223C2.75 25.4854 4.50355 27.2389 6.66667 27.2389C8.48416 27.2389 10.0125 26.001 10.4545 24.3223H16.875C17.3676 24.3223 17.7868 23.9636 17.863 23.4769C18.1168 21.8552 18.879 20.356 20.0397 19.1953C21.2004 18.0346 22.6996 17.2724 24.3213 17.0186C24.808 16.9424 25.1667 16.5232 25.1667 16.0306V8.73893C25.1667 7.70017 24.754 6.70395 24.0195 5.96943C23.285 5.23491 22.2888 4.82227 21.25 4.82227H19.7917ZM6.66667 21.4056C5.60812 21.4056 4.75 22.2637 4.75 23.3223C4.75 24.3808 5.60812 25.2389 6.66667 25.2389C7.72521 25.2389 8.58333 24.3808 8.58333 23.3223C8.58333 22.2637 7.72521 21.4056 6.66667 21.4056ZM24.1667 21.4056C23.1081 21.4056 22.25 22.2637 22.25 23.3223C22.25 24.3808 23.1081 25.2389 24.1667 25.2389C25.2252 25.2389 26.0834 24.3808 26.0834 23.3223C26.0834 22.2637 25.2252 21.4056 24.1667 21.4056ZM20.25 23.3223C20.25 21.1591 22.0036 19.4056 24.1667 19.4056C26.3298 19.4056 28.0834 21.1591 28.0834 23.3223C28.0834 25.4854 26.3298 27.2389 24.1667 27.2389C22.0036 27.2389 20.25 25.4854 20.25 23.3223Z" fill="black"/>
</svg>
