<svg width="30" height="31" viewBox="0 0 30 31" fill="none" xmlns="http://www.w3.org/2000/svg">
<path d="M15 2.07227L25.2711 4.35474C25.8431 4.48184 26.25 4.9891 26.25 5.57498V18.0584C26.25 20.566 24.9967 22.9078 22.9102 24.2988L15 29.5723L7.08975 24.2988C5.00326 22.9078 3.75 20.566 3.75 18.0584V5.57498C3.75 4.9891 4.15691 4.48184 4.72884 4.35474L15 2.07227ZM15 4.63325L6.25 6.57769V18.0584C6.25 19.7301 7.0855 21.2913 8.4765 22.2186L15 26.5676L21.5235 22.2186C22.9145 21.2913 23.75 19.7301 23.75 18.0584V6.57769L15 4.63325ZM20.5655 11.0996L22.3333 12.8673L14.3783 20.8223L9.07499 15.519L10.8428 13.7511L14.3774 17.2859L20.5655 11.0996Z" fill="black"/>
</svg>
